<?xml version="1.0" encoding="UTF-8"?>
<svg width="400" height="400" viewBox="0 0 400 400" xmlns="http://www.w3.org/2000/svg">
    <!-- Background circle -->
    <circle cx="200" cy="200" r="190" fill="#f8f9fa" stroke="#0d6efd" stroke-width="4"/>
    
    <!-- Stylized eyes -->
    <g transform="translate(200, 200)">
        <!-- Left eye -->
        <g transform="translate(-60, 0)">
            <!-- Eye shape -->
            <path d="M-30,-20 C-30,-30 -20,-40 -10,-40 C0,-40 10,-30 10,-20 C10,-10 0,0 -10,0 C-20,0 -30,-10 -30,-20" 
                  fill="#0d6efd" stroke="#0a58ca" stroke-width="2"/>
            <!-- Pupil -->
            <circle cx="0" cy="-15" r="5" fill="#ffffff"/>
            <!-- Reflection -->
            <circle cx="-2" cy="-17" r="2" fill="#ffffff"/>
        </g>
        
        <!-- Right eye -->
        <g transform="translate(60, 0)">
            <!-- Eye shape -->
            <path d="M-30,-20 C-30,-30 -20,-40 -10,-40 C0,-40 10,-30 10,-20 C10,-10 0,0 -10,0 C-20,0 -30,-10 -30,-20" 
                  fill="#0d6efd" stroke="#0a58ca" stroke-width="2"/>
            <!-- Pupil -->
            <circle cx="0" cy="-15" r="5" fill="#ffffff"/>
            <!-- Reflection -->
            <circle cx="-2" cy="-17" r="2" fill="#ffffff"/>
        </g>
    </g>
    
    <!-- Aircraft silhouette -->
    <path d="M100,250 L200,150 L300,250 L250,300 L150,300 Z" 
          fill="#0d6efd" stroke="#0a58ca" stroke-width="2"/>
    
    <!-- Cloud elements -->
    <g fill="#ffffff" stroke="#0d6efd" stroke-width="1">
        <circle cx="100" cy="100" r="20"/>
        <circle cx="130" cy="100" r="25"/>
        <circle cx="160" cy="100" r="20"/>
        
        <circle cx="300" cy="150" r="20"/>
        <circle cx="330" cy="150" r="25"/>
        <circle cx="360" cy="150" r="20"/>
    </g>
    
    <!-- Sun rays -->
    <g stroke="#0d6efd" stroke-width="2">
        <line x1="200" y1="10" x2="200" y2="30"/>
        <line x1="200" y1="370" x2="200" y2="390"/>
        <line x1="10" y1="200" x2="30" y2="200"/>
        <line x1="370" y1="200" x2="390" y2="200"/>
        <line x1="50" y1="50" x2="70" y2="70"/>
        <line x1="330" y1="50" x2="350" y2="70"/>
        <line x1="50" y1="350" x2="70" y2="330"/>
        <line x1="330" y1="350" x2="350" y2="330"/>
    </g>
</svg> 